<?xml version="1.0" standalone="no"?>
<!DOCTYPE svg PUBLIC "-//W3C//DTD SVG 20010904//EN"
 "http://www.w3.org/TR/2001/REC-SVG-20010904/DTD/svg10.dtd">
<svg version="1.0" xmlns="http://www.w3.org/2000/svg"
 width="418.000000pt" height="400.000000pt" viewBox="0 0 418.000000 400.000000"
 preserveAspectRatio="xMidYMid meet">
<metadata>
Created by potrace 1.12, written by Peter Selinger 2001-2015
</metadata>
<g transform="translate(0.000000,400.000000) scale(0.100000,-0.100000)"
fill="#000000" stroke="none">
<path d="M2383 3712 c4 -5 24 -13 44 -16 66 -12 77 -17 62 -27 -11 -7 -10 -9
4 -9 28 0 64 -28 77 -61 17 -40 6 -47 -37 -24 -30 16 -56 20 -142 20 -93 0
-112 -3 -155 -25 -44 -23 -69 -54 -65 -84 3 -28 -5 -34 -63 -40 -35 -4 -103
-14 -151 -23 -66 -12 -91 -13 -100 -4 -6 6 -19 11 -29 11 -22 0 -58 -34 -58
-55 0 -8 -4 -15 -9 -15 -5 0 -7 -17 -4 -39 5 -33 2 -39 -17 -44 -33 -8 -21
-39 23 -60 36 -18 42 -37 11 -37 -13 0 -16 -13 -18 -82 -1 -20 3 -23 32 -20
18 2 32 -1 32 -7 0 -17 56 -13 70 4 7 8 13 26 13 40 0 16 4 22 11 18 6 -4 -2
8 -17 27 -17 20 -27 41 -24 52 6 21 0 23 -18 4 -8 -7 -10 -17 -6 -22 14 -16
31 -92 25 -108 -18 -46 -53 10 -56 89 -1 26 4 40 16 47 13 7 16 17 11 36 -6
26 -6 26 14 8 12 -11 21 -15 21 -9 0 5 -9 18 -20 28 -18 17 -20 16 -34 -16
-18 -41 -22 -13 -6 41 6 19 11 50 12 68 1 32 18 47 18 16 0 -11 5 -14 16 -10
9 3 37 9 62 12 25 3 54 10 64 15 12 7 27 5 48 -6 27 -14 30 -14 30 0 0 9 9 15
23 15 12 0 32 3 43 6 21 5 21 2 26 -102 5 -102 6 -109 32 -131 31 -26 67 -33
46 -8 -10 12 -8 12 18 -1 69 -34 206 -30 244 8 13 13 23 16 27 10 4 -7 12 -8
21 -1 11 6 12 11 3 17 -8 5 -7 18 7 47 19 41 16 64 -4 31 -21 -34 -44 -61 -49
-56 -3 3 -2 23 2 45 8 46 4 78 -10 70 -5 -4 -9 -28 -9 -54 0 -49 -12 -71 -41
-71 -15 0 -16 5 -10 28 5 16 15 41 23 58 9 16 13 35 10 43 -3 8 0 11 6 7 8 -5
11 9 9 44 -2 39 -5 50 -17 48 -10 -2 -14 -13 -12 -31 2 -16 -7 -49 -22 -77
-15 -28 -26 -53 -25 -57 0 -4 -4 -9 -10 -11 -6 -2 -8 3 -5 12 4 11 1 16 -10
16 -17 0 -37 39 -28 54 3 5 0 6 -6 2 -12 -7 -14 2 -17 63 0 15 -9 27 -23 32
-22 8 -22 7 -16 -27 3 -19 8 -56 9 -82 7 -105 17 -153 31 -148 8 3 14 -1 14
-9 0 -31 -143 14 -156 49 -8 21 -8 188 1 239 6 36 11 45 20 37 10 -8 10 -23
-1 -73 -7 -34 -13 -74 -14 -89 0 -30 17 -37 38 -16 15 15 16 -3 3 -49 -7 -24
-6 -35 5 -44 12 -10 14 4 14 89 0 71 -4 105 -13 114 -18 18 -7 43 18 43 11 -1
37 -8 59 -18 21 -9 51 -17 66 -17 38 0 93 19 108 38 11 14 12 14 12 -1 0 -9 3
-17 8 -17 16 1 74 59 68 68 -4 6 -2 13 4 17 14 9 1 56 -24 83 -11 13 -37 32
-56 42 -42 21 -136 38 -127 22z m146 -160 l34 -21 -29 -6 c-16 -4 -49 -13 -73
-22 -44 -16 -122 -13 -145 6 -6 5 -24 11 -40 13 -43 5 -42 23 1 42 55 24 205
17 252 -12z"/>
<path d="M1064 3535 c-66 -29 -103 -105 -71 -146 45 -59 71 -83 75 -71 3 10 9
9 29 -3 48 -32 203 -28 203 6 0 5 5 9 11 9 5 0 7 -4 4 -10 -11 -18 22 -11 49
11 l26 20 1 -58 c1 -55 1 -56 11 -24 6 24 6 47 -3 77 -11 37 -19 46 -59 63
-66 28 -153 45 -191 37 -19 -4 -60 -17 -91 -30 l-57 -23 3 35 c2 27 11 42 36
61 82 63 88 74 24 46z m189 -120 c116 -30 143 -60 66 -71 -19 -3 -47 -12 -63
-20 -35 -17 -58 -18 -73 -3 -7 7 -25 13 -40 14 -49 3 -52 5 -58 25 -3 11 -13
20 -22 20 -12 0 -13 -3 -4 -14 10 -12 8 -13 -8 -9 -12 3 -21 9 -21 13 0 13
107 54 155 59 6 1 37 -6 68 -14z"/>
<path d="M2602 3503 c2 -10 9 -17 16 -16 7 2 9 -4 5 -14 -4 -10 -2 -14 5 -10
9 6 52 -41 52 -57 0 -3 16 -38 35 -79 19 -41 35 -80 35 -87 0 -7 6 -21 14 -29
8 -9 29 -52 47 -96 18 -44 36 -81 40 -83 4 -2 13 -20 20 -40 6 -20 23 -53 38
-72 33 -43 42 -59 81 -140 17 -36 38 -78 46 -93 8 -16 14 -33 14 -37 0 -5 16
-44 36 -87 20 -43 44 -96 54 -118 10 -22 37 -80 60 -129 22 -50 39 -94 37
-100 -2 -5 5 -18 15 -28 10 -10 18 -29 18 -42 0 -14 5 -28 11 -31 9 -6 29 -45
34 -70 3 -13 60 -137 91 -197 13 -27 24 -52 24 -58 0 -5 16 -42 35 -81 19 -40
35 -78 35 -86 0 -7 14 -40 30 -73 17 -33 30 -67 30 -77 0 -10 7 -27 15 -37 8
-11 13 -29 9 -40 -4 -15 -3 -17 4 -8 16 23 23 -49 17 -161 -15 -271 -28 -413
-39 -426 -9 -12 -8 -13 4 -6 12 6 12 5 4 -4 -7 -8 -10 -29 -7 -52 11 -83 -37
-130 -152 -149 -27 -4 -198 -33 -379 -64 -181 -30 -333 -53 -338 -50 -5 3 -15
1 -22 -5 -7 -6 -32 -13 -57 -16 -24 -2 -138 -20 -254 -40 -115 -19 -223 -37
-240 -39 -84 -12 -305 -50 -423 -71 -73 -14 -164 -25 -202 -25 -66 0 -71 2
-103 35 -18 19 -43 54 -54 77 -20 41 -84 211 -117 308 -8 25 -25 70 -36 100
-12 30 -37 96 -55 145 -18 50 -35 97 -39 105 -6 17 -64 182 -106 305 -15 44
-37 105 -48 135 -11 30 -50 138 -87 240 -36 102 -69 192 -72 200 -3 8 -7 20
-9 25 -1 6 -26 75 -54 155 -118 331 -123 348 -121 440 0 47 5 110 11 140 5 30
14 111 20 180 6 69 13 134 14 145 2 11 7 59 11 106 6 72 11 91 31 113 14 14
30 26 36 26 6 0 19 7 29 16 9 8 23 17 31 18 7 2 21 6 31 11 10 4 20 5 23 2 3
-3 29 1 57 9 70 18 77 18 77 -8 0 -17 -13 -30 -48 -50 -78 -44 -87 -59 -87
-144 0 -69 2 -76 30 -103 33 -33 143 -98 182 -107 23 -6 24 -5 15 12 -6 11 -7
27 -1 41 9 24 -5 34 -14 11 -4 -10 -6 -10 -6 0 -1 6 -8 12 -17 12 -8 0 -12 -5
-8 -11 4 -7 -1 -9 -12 -7 -11 2 -18 10 -17 16 4 16 -14 15 -19 0 -8 -23 -78
34 -99 79 -24 53 -24 90 0 126 19 30 67 60 81 52 4 -3 9 -31 12 -63 6 -82 34
-131 96 -166 47 -27 50 -31 37 -46 -14 -16 -11 -30 6 -30 5 0 6 7 2 16 -5 13
-2 15 15 9 13 -4 22 -2 22 4 0 6 7 11 15 11 8 0 15 5 15 10 0 6 -11 10 -24 10
-13 0 -35 9 -49 20 -14 11 -29 20 -34 20 -5 0 -22 13 -37 29 -32 33 -47 120
-41 233 l4 67 -27 -4 c-15 -3 -65 -11 -112 -19 -99 -17 -127 -26 -158 -55 -44
-42 -50 -65 -66 -226 -9 -88 -23 -221 -31 -295 -7 -74 -17 -163 -20 -197 -7
-67 13 -153 80 -343 87 -247 147 -416 152 -430 3 -8 20 -55 38 -105 18 -49 52
-142 75 -205 23 -63 48 -135 55 -160 7 -25 63 -182 125 -350 61 -168 132 -363
157 -433 48 -137 100 -238 136 -262 40 -25 115 -27 242 -5 161 29 246 43 540
91 1027 166 1295 212 1341 230 12 4 33 19 48 32 26 24 27 29 43 243 9 121 17
291 17 379 l1 160 -73 170 c-40 94 -86 198 -103 233 -16 35 -29 65 -29 68 0 6
-57 132 -70 156 -6 10 -10 25 -10 33 0 8 -4 15 -8 15 -4 0 -14 17 -21 38 -8
20 -29 70 -47 110 -19 41 -34 75 -34 77 0 3 -33 78 -80 180 -46 100 -130 298
-130 306 0 5 -4 9 -9 9 -5 0 -12 11 -15 24 -3 13 -26 51 -51 85 -25 33 -45 64
-45 68 0 9 -92 210 -176 387 -13 28 -24 54 -24 59 0 6 -16 30 -36 53 -36 45
-69 59 -62 27z"/>
<path d="M1975 3484 c-400 -49 -532 -65 -544 -70 -11 -4 -9 -8 7 -20 28 -19
28 -30 0 -38 -18 -5 -20 -8 -9 -15 15 -9 63 17 55 30 -2 3 34 11 79 18 106 14
120 14 111 -1 -4 -7 2 -5 13 5 11 9 32 17 47 17 15 0 40 10 57 22 25 19 33 20
49 10 14 -8 27 -9 45 -2 19 7 243 40 272 40 2 0 3 5 3 10 0 13 -45 11 -185 -6z"/>
<path d="M1345 3299 c-3 -9 -13 -57 -21 -105 -20 -121 -21 -126 -29 -152 -4
-13 -25 -32 -46 -43 -48 -24 -52 -44 -8 -35 17 3 40 6 50 6 11 0 19 4 19 9 0
5 -9 7 -20 4 -11 -3 -20 -3 -20 0 0 9 98 56 104 50 3 -4 6 6 6 20 0 33 -7 34
-37 5 -13 -12 -23 -16 -23 -9 0 22 20 51 35 51 8 0 17 10 19 23 10 45 12 97 4
97 -4 0 -8 12 -9 28 0 15 -4 36 -9 47 -7 17 -9 18 -15 4z"/>
<path d="M1253 3275 c-44 -19 -41 -23 10 -18 34 4 40 3 30 -8 -7 -7 -13 -20
-13 -28 0 -9 -12 -29 -26 -45 -24 -27 -26 -28 -39 -10 -8 11 -15 15 -15 10 0
-5 -7 -3 -15 4 -8 7 -11 17 -7 24 16 24 4 65 -19 66 -7 0 -21 -92 -23 -147 -1
-35 -13 -41 -48 -22 -20 11 -20 11 -1 32 24 27 47 82 41 99 -3 7 -16 -7 -29
-31 -50 -92 -44 -86 -68 -62 -19 19 -21 20 -21 3 0 -26 29 -49 83 -68 46 -16
57 -27 37 -39 -11 -7 -4 -25 9 -25 12 0 20 60 9 66 -4 3 -3 14 3 26 6 11 9 29
6 39 -7 27 9 33 30 10 10 -10 29 -21 43 -23 22 -3 29 4 52 52 37 77 43 110 21
110 -10 -1 -33 -7 -50 -15z"/>
<path d="M2215 3100 c-5 -14 -8 -33 -6 -42 1 -11 -5 -18 -16 -19 -21 -1 -31
-2 -173 -28 -58 -11 -154 -25 -215 -31 -60 -6 -139 -15 -175 -20 -36 -5 -106
-14 -157 -20 -50 -5 -99 -13 -107 -16 -11 -4 -16 0 -16 15 0 17 -4 19 -22 12
-13 -4 -28 -6 -35 -4 -17 6 -27 -16 -9 -23 8 -3 12 -12 9 -21 -5 -11 -1 -14
13 -10 10 3 60 11 109 17 50 6 137 18 195 27 58 8 133 15 168 15 34 0 62 4 62
9 0 5 17 9 38 9 21 0 63 4 93 9 30 5 83 14 119 20 36 6 82 13 103 17 42 7 55
34 40 81 l-10 28 -8 -25z"/>
<path d="M1987 2925 c-213 -29 -365 -102 -403 -194 -31 -73 11 -147 108 -191
29 -14 58 -32 65 -40 8 -11 15 -12 23 -4 7 7 25 8 53 3 61 -12 263 -11 333 2
146 26 289 87 349 149 24 25 30 42 35 90 3 32 4 57 2 55 -2 -2 -16 10 -30 27
-37 44 -135 85 -244 103 -110 18 -159 18 -291 0z m308 -26 c78 -14 153 -49
193 -88 40 -41 45 -106 11 -137 -22 -19 -22 -19 -10 3 21 42 14 80 -21 104
l-33 23 24 -27 c30 -33 32 -78 4 -115 -133 -179 -723 -208 -817 -40 -18 31
-19 41 -9 67 6 17 8 31 3 31 -11 0 -20 -26 -20 -56 0 -13 -4 -24 -10 -24 -20
0 -10 73 15 105 43 58 181 123 315 150 81 16 277 19 355 4z"/>
<path d="M2325 2790 c-4 -11 -11 -18 -16 -14 -5 3 -7 9 -4 13 5 10 -119 6
-157 -4 -32 -8 -32 -11 -16 -65 15 -46 42 -61 103 -56 53 5 73 14 80 37 7 22
28 25 44 5 14 -16 59 -27 66 -15 3 4 -15 18 -40 30 -25 12 -45 24 -45 25 0 19
23 54 32 48 7 -4 8 -3 4 4 -12 19 -44 14 -51 -8z"/>
<path d="M2360 2173 c-8 -3 -27 -17 -42 -31 -23 -21 -28 -34 -28 -71 1 -44 23
-92 36 -78 8 8 64 -21 64 -33 0 -21 48 -21 88 0 23 12 46 19 52 15 34 -21 53
82 25 134 -26 51 -134 86 -195 64z m150 -63 c46 -46 47 -52 20 -87 -11 -14
-20 -23 -20 -20 0 4 -16 -2 -35 -13 -43 -24 -61 -25 -69 -5 -3 8 -18 21 -33
27 -41 19 -53 33 -53 66 0 43 41 71 103 72 42 0 51 -4 87 -40z"/>
<path d="M2156 1964 c-52 -67 -58 -126 -24 -216 31 -81 105 -128 211 -135 180
-12 219 0 275 83 32 46 34 53 30 121 -2 40 -9 78 -16 85 -10 10 -11 6 -6 -20
12 -60 8 -116 -8 -106 -7 5 -9 2 -5 -8 3 -9 0 -24 -8 -34 -11 -16 -15 -16 -30
-4 -15 12 -19 12 -30 -4 -10 -13 -11 -25 -4 -43 12 -32 -4 -53 -41 -53 -22 0
-28 5 -28 23 -1 12 -3 31 -4 42 -2 14 7 24 33 36 20 10 50 34 67 54 36 40 41
81 17 138 -8 19 -11 38 -7 42 4 5 1 5 -5 1 -7 -4 -13 -15 -13 -24 -1 -23 -21
-48 -62 -76 -31 -20 -42 -23 -79 -16 -24 5 -54 6 -66 3 -18 -4 -25 1 -33 21
-5 14 -13 26 -18 26 -13 0 -42 57 -42 84 0 36 -13 33 -44 -12 -38 -55 -35
-104 9 -164 22 -30 45 -50 62 -53 16 -4 41 -13 56 -21 19 -11 40 -14 67 -9 26
4 40 3 40 -4 0 -6 -7 -11 -15 -11 -8 0 -15 -4 -15 -9 0 -5 -11 -8 -24 -5 -21
4 -24 1 -22 -26 1 -18 -3 -30 -10 -30 -8 0 -12 14 -11 38 3 51 -23 49 -38 -3
-9 -34 -14 -39 -35 -37 -28 5 -80 41 -80 58 0 6 9 22 19 36 13 16 17 29 11 38
-7 12 -13 10 -33 -8 -23 -22 -37 -21 -37 5 0 7 6 13 13 13 7 0 13 9 14 21 2
19 -2 20 -31 15 l-34 -6 6 47 c3 30 14 59 28 76 13 16 24 32 24 37 0 5 7 16
16 24 8 9 11 16 5 16 -5 0 -26 -21 -45 -46z"/>
<path d="M2895 875 c-8 -19 -22 -50 -30 -69 -10 -23 -23 -35 -40 -39 -28 -5
-29 0 -10 47 8 19 10 19 -52 1 -18 -5 -22 -3 -17 9 7 18 -9 21 -35 6 -13 -6
-18 -21 -18 -50 0 -45 13 -53 27 -16 9 25 28 42 36 33 3 -3 0 -15 -6 -27 -6
-12 -9 -24 -6 -27 6 -7 131 13 183 29 18 5 44 23 57 39 18 21 39 32 71 38 46
9 63 17 53 26 -5 6 -144 -21 -159 -31 -5 -3 -9 -16 -9 -29 0 -19 -26 -43 -35
-33 -2 2 10 31 25 66 l29 62 -24 0 c-19 0 -29 -9 -40 -35z"/>
<path d="M2040 774 c-60 -13 -90 -28 -79 -38 2 -3 33 2 69 9 89 19 100 19 100
-5 0 -13 -13 -28 -35 -41 l-35 -21 17 -29 c16 -28 21 -29 58 -23 22 3 45 10
50 15 6 4 24 8 40 7 17 0 68 7 115 16 76 14 88 20 113 51 29 35 64 49 54 21
-3 -8 1 -20 9 -27 17 -14 140 3 158 22 11 12 5 11 -84 -7 -32 -7 -41 11 -18
34 15 15 32 16 23 2 -3 -6 5 -10 18 -10 26 0 44 25 26 36 -6 3 -47 0 -91 -7
-69 -11 -83 -17 -101 -41 -24 -33 -40 -36 -35 -8 2 10 0 19 -4 20 -33 2 -38
-2 -38 -29 0 -33 -8 -37 -82 -47 -46 -6 -51 -5 -45 10 4 10 7 20 7 22 0 9 29
3 32 -7 3 -9 10 -9 26 0 39 21 26 34 -28 29 -54 -5 -90 -29 -90 -60 0 -28 -56
-25 -66 4 -4 13 -2 24 4 26 30 10 63 46 60 66 -2 17 -10 21 -43 23 -22 1 -69
-5 -105 -13z"/>
</g>
</svg>
